<svg xmlns="http://www.w3.org/2000/svg" width="1400" height="900" viewBox="0 0 1400 900">
  <rect width="1400" height="900" fill="#1a1410"/>
  <rect x="0" y="0" width="1400" height="64" fill="#241b14"/>
  <circle cx="44" cy="32" r="16" fill="#e3a23a"/>
  <rect x="72" y="24" width="140" height="16" rx="4" fill="#f2e6d3"/>
  <rect x="1180" y="18" width="160" height="28" rx="6" fill="#e3a23a"/>
  <rect x="60" y="120" width="620" height="32" rx="4" fill="#f2e6d3"/>
  <rect x="60" y="168" width="480" height="16" rx="4" fill="#b8a48a"/>
  <rect x="60" y="230" width="260" height="40" rx="8" fill="#e3a23a"/>
  <g>
    <circle cx="1080" cy="260" r="180" fill="#2c2015"/>
    <circle cx="1080" cy="260" r="120" fill="#3a2b1b"/>
    <circle cx="1080" cy="260" r="60" fill="#e3a23a"/>
  </g>
  <g>
    <rect x="60" y="420" width="300" height="320" rx="12" fill="#241b14"/>
    <circle cx="210" cy="530" r="80" fill="#e3a23a"/>
    <rect x="80" y="636" width="200" height="14" rx="4" fill="#f2e6d3"/>
    <rect x="80" y="664" width="100" height="14" rx="4" fill="#e3a23a"/>
  </g>
  <g>
    <rect x="390" y="420" width="300" height="320" rx="12" fill="#241b14"/>
    <circle cx="540" cy="530" r="80" fill="#c76b3f"/>
    <rect x="410" y="636" width="200" height="14" rx="4" fill="#f2e6d3"/>
    <rect x="410" y="664" width="100" height="14" rx="4" fill="#e3a23a"/>
  </g>
  <g>
    <rect x="720" y="420" width="300" height="320" rx="12" fill="#241b14"/>
    <circle cx="870" cy="530" r="80" fill="#a3342b"/>
    <rect x="740" y="636" width="200" height="14" rx="4" fill="#f2e6d3"/>
    <rect x="740" y="664" width="100" height="14" rx="4" fill="#e3a23a"/>
  </g>
</svg>
